<?xml version="1.0" encoding="utf-8"?>
<!-- Generator: Adobe Illustrator 17.0.0, SVG Export Plug-In . SVG Version: 6.00 Build 0)  -->
<!DOCTYPE svg PUBLIC "-//W3C//DTD SVG 1.1//EN" "http://www.w3.org/Graphics/SVG/1.1/DTD/svg11.dtd">
<svg version="1.1" id="Capa_1" xmlns="http://www.w3.org/2000/svg" xmlns:xlink="http://www.w3.org/1999/xlink" x="0px" y="0px"
	 width="31.14px" height="31.103px" viewBox="0 0 31.14 31.103" enable-background="new 0 0 31.14 31.103" xml:space="preserve">
<path fill="#FFFFFF" d="M15.57-0.018C6.971-0.018,0,6.953,0,15.552c0,8.599,6.971,15.57,15.57,15.57
	c8.599,0,15.57-6.971,15.57-15.57C31.14,6.953,24.169-0.018,15.57-0.018z M24.14,19.778c0,0.297-0.321,0.447-0.618,0.447h-6.749
	l-4.874,3.424c-0.093,0.065-0.2,0.119-0.306,0.119c-0.17,0-0.338-0.07-0.442-0.22c-0.169-0.244-0.108-0.573,0.136-0.742l5.012-3.48
	c0.09-0.062,0.197-0.101,0.306-0.101h6.535v-10h-15v10h3.453c0.297,0,0.537,0.203,0.537,0.5c0,0.297-0.241,0.5-0.537,0.5H7.618
	c-0.297,0-0.478-0.15-0.478-0.447V8.758c0-0.297,0.182-0.532,0.478-0.532h15.904c0.297,0,0.618,0.236,0.618,0.532V19.778z
	 M19.546,14.225c0.297,0,0.537,0.203,0.537,0.5c0,0.297-0.241,0.5-0.537,0.5h-7.952c-0.297,0-0.537-0.203-0.537-0.5
	c0-0.297,0.241-0.5,0.537-0.5H19.546z M13.045,12.725c0-0.297,0.241-0.5,0.537-0.5h3.976c0.297,0,0.537,0.203,0.537,0.5
	c0,0.297-0.241,0.5-0.537,0.5h-3.976C13.285,13.225,13.045,13.022,13.045,12.725z M11.594,16.225h7.952
	c0.297,0,0.537,0.203,0.537,0.5c0,0.297-0.241,0.5-0.537,0.5h-7.952c-0.297,0-0.537-0.203-0.537-0.5
	C11.057,16.428,11.298,16.225,11.594,16.225z"/>
</svg>
