<?xml version="1.0" encoding="utf-8"?>
<!-- Generator: Adobe Illustrator 17.0.0, SVG Export Plug-In . SVG Version: 6.00 Build 0)  -->
<!DOCTYPE svg PUBLIC "-//W3C//DTD SVG 1.1//EN" "http://www.w3.org/Graphics/SVG/1.1/DTD/svg11.dtd">
<svg version="1.1" id="Layer_1" xmlns="http://www.w3.org/2000/svg" xmlns:xlink="http://www.w3.org/1999/xlink" x="0px" y="0px"
	 width="200px" height="200px" viewBox="0 0 200 200" enable-background="new 0 0 200 200" xml:space="preserve">
<g>
	<path fill="#F15A24" d="M193.75,112.5h-75c-3.456,0-6.25,2.794-6.25,6.25v75c0,3.456,2.794,6.25,6.25,6.25h75
		c3.456,0,6.25-2.794,6.25-6.25v-75C200,115.294,197.206,112.5,193.75,112.5z M193.75,0.001h-75c-3.456,0-6.25,2.8-6.25,6.25v75
		c0,3.456,2.794,6.25,6.25,6.25h75c3.456,0,6.25-2.794,6.25-6.25v-75C200,2.801,197.206,0.001,193.75,0.001z M81.25,0.001h-75
		C2.8,0.001,0,2.801,0,6.251v75c0,3.456,2.8,6.25,6.25,6.25h75c3.45,0,6.25-2.794,6.25-6.25v-75C87.5,2.801,84.7,0.001,81.25,0.001z
		 M81.25,112.5h-75c-3.45,0-6.25,2.794-6.25,6.25v75c0,3.456,2.8,6.25,6.25,6.25h75c3.45,0,6.25-2.794,6.25-6.25v-75
		C87.5,115.294,84.7,112.5,81.25,112.5z"/>
</g>
</svg>
