<?xml version="1.0" encoding="utf-8"?>
<!-- Generator: Adobe Illustrator 17.0.0, SVG Export Plug-In . SVG Version: 6.00 Build 0)  -->
<!DOCTYPE svg PUBLIC "-//W3C//DTD SVG 1.1//EN" "http://www.w3.org/Graphics/SVG/1.1/DTD/svg11.dtd">
<svg version="1.1" id="Capa_1" xmlns="http://www.w3.org/2000/svg" xmlns:xlink="http://www.w3.org/1999/xlink" x="0px" y="0px"
	 width="31.14px" height="31.103px" viewBox="0 0 31.14 31.103" enable-background="new 0 0 31.14 31.103" xml:space="preserve">
<g>
	<path fill="#B1B2B6" d="M13.614,22.885c0.513,0,0.935-0.418,0.935-0.935c0-0.517-0.422-0.935-0.935-0.935
		c-0.514,0-0.935,0.422-0.935,0.935C12.679,22.464,13.1,22.885,13.614,22.885z"/>
	<path fill="#B1B2B6" d="M20.939,22.885c0.513,0,0.935-0.418,0.935-0.935c0-0.517-0.422-0.935-0.935-0.935
		c-0.514,0-0.935,0.422-0.935,0.935C20.004,22.464,20.426,22.885,20.939,22.885z"/>
	<path fill="#B1B2B6" d="M15.57-0.037C6.971-0.037,0,6.934,0,15.533s6.971,15.57,15.57,15.57s15.57-6.971,15.57-15.57
		S24.169-0.037,15.57-0.037z M23.14,16.278c0,1.034-0.725,1.948-1.759,1.948h-9.118c-0.35,0-0.124-0.166-1.124-0.329v1.245
		c0,0.527,0.593,1.084,1.124,1.084h8.672c1.02,0,1.854,0.771,1.854,1.791c0,1.02-0.833,1.822-1.854,1.822
		c-1.02,0-1.853-0.742-1.853-1.765c0-0.34,0.092-0.848,0.255-0.848h-4.129c0.163,0,0.255,0.492,0.255,0.832
		c0,1.02-0.833,1.801-1.854,1.801s-1.853-0.855-1.853-1.879c0-0.347-0.025-0.687,0.142-0.965c-0.922-0.119-1.759-0.921-1.759-1.873
		V9.082L8.039,8.143C7.805,8.044,7.757,7.776,7.856,7.541c0.099-0.235,0.398-0.343,0.633-0.245l2.522,1.054
		c0.014,0.007,0.038,0.014,0.055,0.024c0,0,0.007,0,0.011,0.004c0.007,0.004,0.019,0.01,0.029,0.017
		c0.007,0.007,0.015,0.01,0.021,0.017l0.014,0.01c0.01,0.007,0.017,0.014,0.024,0.021l0.01,0.01l0.031,0.03
		c0.003,0.007,0.01,0.014,0.014,0.02c0.003,0.007,0.01,0.017,0.01,0.017c0.003,0.007,0.01,0.017,0.01,0.017
		c0.007,0.007,0.01,0.014,0.017,0.024c0,0,0,0.007,0.003,0.01c0.007,0.01,0.01,0.017,0.014,0.031c0,0,0.003,0.007,0.003,0.01
		l0.01,0.03c0,0.007,0.003,0.017,0.003,0.017c0.004,0.01,0.004,0.017,0.007,0.027c0,0.01,0.003,0.02,0.003,0.03l-0.081,0.014
		c0.003,0.014-0.081,0.031-0.081,0.048v1.612l11.64,1.595c0.007,0,0.052,0.003,0.056,0.003c0.01,0,0.038,0,0.052,0.004
		c0,0,0.017,0.004,0.024,0.004c0.007,0,0.022,0.004,0.029,0.007c0.007,0.004,0.016,0.004,0.023,0.007l0.022,0.01l0.041,0.02
		c0.007,0.007,0.014,0.01,0.021,0.014c0.007,0.004,0.01,0.007,0.017,0.011c0.007,0.003,0.014,0.01,0.021,0.013
		c0.007,0.004,0.01,0.01,0.017,0.014l0.017,0.017c0.003,0.004,0.01,0.007,0.017,0.02c0,0,0.007,0.004,0.01,0.01
		c0.004,0.007,0.01,0.011,0.014,0.017c0.007,0.007,0.01,0.01,0.014,0.017c0.004,0.007,0.01,0.014,0.014,0.021
		c0.004,0.007,0.01,0.017,0.01,0.017l0.01,0.021c0.003,0.004,0.007,0.01,0.01,0.017c0.003,0.01,0.007,0.017,0.01,0.024
		c0.003,0.007,0.003,0.013,0.007,0.02c0.003,0.007,0.003,0.014,0.007,0.02c0.003,0.01,0.003,0.017,0.007,0.024
		c0,0.007,0.003,0.014,0.003,0.021c0,0.007-0.056,0.017-0.056,0.023c0.003,0.007-0.056,0.014-0.056,0.021V16.278z"/>
	<path fill="#B1B2B6" d="M11.14,16.278c0,0.527,0.593,0.948,1.124,0.948h9.118c0.527,0,0.759-0.417,0.759-0.951v-3.438l-11-1.521
		V16.278z"/>
</g>
</svg>
