<?xml version="1.0" encoding="utf-8"?>
<!-- Generator: Adobe Illustrator 17.0.0, SVG Export Plug-In . SVG Version: 6.00 Build 0)  -->
<!DOCTYPE svg PUBLIC "-//W3C//DTD SVG 1.1//EN" "http://www.w3.org/Graphics/SVG/1.1/DTD/svg11.dtd">
<svg version="1.1" id="Capa_1" xmlns="http://www.w3.org/2000/svg" xmlns:xlink="http://www.w3.org/1999/xlink" x="0px" y="0px"
	 width="126.624px" height="30px" viewBox="0 0 126.624 30" enable-background="new 0 0 126.624 30" xml:space="preserve">
<g>
	<g>
		<path fill="#030104" d="M103.023,22.025v4.485l0.077,0.671l-0.394,0.048l-0.077-0.409c-0.385,0.267-0.74,0.401-1.064,0.401
			c-0.459,0-0.816-0.17-1.07-0.51c-0.255-0.34-0.383-0.801-0.383-1.385c0-0.585,0.142-1.046,0.426-1.383
			c0.283-0.337,0.667-0.506,1.156-0.506c0.288,0,0.596,0.07,0.92,0.209v-1.621H103.023z M100.553,25.312
			c0,0.454,0.088,0.819,0.264,1.093c0.179,0.276,0.435,0.413,0.769,0.413c0.333,0,0.677-0.147,1.027-0.44v-2.317
			c-0.108-0.05-0.256-0.101-0.445-0.151c-0.187-0.049-0.339-0.073-0.458-0.073c-0.366,0-0.651,0.133-0.854,0.398
			C100.654,24.502,100.553,24.86,100.553,25.312z"/>
		<path fill="#030104" d="M104.066,27.15v-0.386h1.127v-2.895h-1.127v-0.386h1.535v3.281h1.127v0.386H104.066z M105.031,22.395
			c0-0.103,0.029-0.182,0.088-0.239c0.06-0.057,0.141-0.085,0.244-0.085c0.211,0,0.316,0.113,0.316,0.339
			c0,0.227-0.105,0.337-0.316,0.332C105.142,22.742,105.031,22.627,105.031,22.395z"/>
		<path fill="#030104" d="M107.909,26.672c-0.245-0.319-0.369-0.771-0.369-1.355c0-0.584,0.136-1.043,0.413-1.378
			c0.275-0.335,0.661-0.502,1.153-0.502c0.274,0,0.58,0.09,0.919,0.271l0.015-0.225h0.395v2.781
			c0.077,0.613,0.115,0.967,0.115,1.065c0,0.451-0.152,0.793-0.455,1.022c-0.303,0.23-0.66,0.344-1.07,0.344
			c-0.409,0-0.871-0.103-1.391-0.309L107.771,28c0.51,0.197,0.918,0.294,1.224,0.294c0.305,0,0.575-0.08,0.803-0.24
			c0.23-0.16,0.343-0.398,0.343-0.718l-0.07-0.61c-0.407,0.283-0.773,0.425-1.096,0.425C108.51,27.15,108.157,26.99,107.909,26.672z
			 M108.265,24.229c-0.206,0.27-0.31,0.631-0.31,1.081c0,0.45,0.091,0.805,0.271,1.065c0.182,0.26,0.433,0.389,0.756,0.389
			c0.326,0,0.674-0.155,1.043-0.463V24.14c-0.334-0.211-0.635-0.317-0.902-0.317C108.757,23.823,108.47,23.958,108.265,24.229z"/>
		<path fill="#030104" d="M111.476,27.15v-0.386h1.128v-2.895h-1.128v-0.386h1.537v3.281h1.127v0.386H111.476z M112.441,22.395
			c0-0.103,0.029-0.182,0.089-0.239c0.059-0.057,0.141-0.085,0.243-0.085c0.212,0,0.317,0.113,0.317,0.339
			c0,0.227-0.105,0.337-0.317,0.332C112.553,22.742,112.441,22.627,112.441,22.395z"/>
		<path fill="#030104" d="M114.973,23.97v-0.386h0.749v-0.934l0.41-0.078v1.013h1.767v0.386h-1.767v1.76
			c0,0.392,0.056,0.673,0.174,0.845c0.114,0.173,0.322,0.259,0.621,0.259c0.112,0,0.288-0.02,0.524-0.059
			c0.237-0.038,0.4-0.073,0.487-0.104l0.094,0.378c-0.098,0.036-0.279,0.076-0.538,0.116c-0.259,0.041-0.448,0.063-0.567,0.063
			c-0.464,0-0.779-0.122-0.95-0.366c-0.17-0.245-0.255-0.618-0.255-1.117V23.97H114.973z"/>
		<path fill="#030104" d="M119.923,27.22c-0.377,0-0.672-0.096-0.888-0.289c-0.216-0.192-0.324-0.466-0.324-0.822
			c0-0.356,0.119-0.631,0.355-0.825c0.237-0.201,0.551-0.302,0.942-0.302c0.391,0,0.735,0.015,1.034,0.046
			c0-0.457-0.057-0.77-0.169-0.937c-0.115-0.168-0.343-0.252-0.687-0.252c-0.345,0-0.751,0.083-1.221,0.247l-0.115-0.386
			c0.478-0.175,0.911-0.262,1.298-0.262c0.51,0,0.853,0.113,1.034,0.34c0.18,0.227,0.27,0.624,0.27,1.19v1.621l0.063,0.587
			l-0.396,0.038l-0.077-0.462c-0.118,0.103-0.285,0.207-0.501,0.312C120.323,27.167,120.118,27.22,119.923,27.22z M119.929,26.819
			c0.191,0,0.398-0.06,0.622-0.183c0.224-0.121,0.385-0.232,0.49-0.335v-0.919c-0.339-0.025-0.663-0.038-0.971-0.038
			c-0.31,0-0.543,0.066-0.697,0.197c-0.155,0.129-0.23,0.306-0.23,0.528C119.144,26.57,119.405,26.819,119.929,26.819z"/>
		<path fill="#030104" d="M122.686,27.15v-0.386h1.181v-4.369l-1.15,0.007l-0.008-0.377l1.567-0.009v4.748h1.221v0.386H122.686z"/>
	</g>
	<g>
		<g>
			<path fill="#030104" d="M103.952,1.778h2.418c0.53,0,0.794,0.206,0.794,0.588c0,0.413-0.264,0.618-0.794,0.618h-2.418V1.778z"/>
			<g>
				<path fill="#030104" d="M6.924,14.525c-1.914,0-3.385-0.5-4.622-1.589v0.323c0,0.529-0.206,0.795-0.589,0.795
					c-0.412,0-0.618-0.265-0.618-0.795v-2.442c0-0.531,0.206-0.796,0.618-0.796c0.352,0,0.589,0.265,0.589,0.647v0.206
					c0,1.355,2.032,2.444,4.534,2.444c2.59,0,4.531-1.149,4.531-2.708c0-1.356-1.294-2.297-4.472-2.651
					C2.715,7.489,1.713,6.43,1.713,4.694c0-1.915,2.15-3.327,5.035-3.327c1.677,0,3.001,0.441,4.031,1.355V2.603
					c0-0.501,0.236-0.825,0.618-0.825c0.383,0,0.589,0.265,0.589,0.825v2.031c0,0.529-0.206,0.795-0.589,0.795
					c-0.352,0-0.558-0.207-0.618-0.677c-0.147-1.324-1.677-2.179-3.914-2.179c-2.178,0-3.827,0.943-3.827,2.208
					c0,1.766,1.824,1.649,4.357,2.061c3.501,0.56,5.296,1.709,5.296,3.799C12.692,12.876,10.249,14.525,6.924,14.525z"/>
				<path fill="#030104" d="M25.148,14.054h-6.716c-0.529,0-0.793-0.206-0.793-0.618c0-0.383,0.264-0.589,0.793-0.589h2.755V2.984
					h-1.517c-0.53,0-0.795-0.205-0.795-0.618c0-0.382,0.265-0.588,0.795-0.588h2.725v11.069h2.754c0.558,0,0.824,0.206,0.824,0.589
					C25.972,13.848,25.677,14.054,25.148,14.054z"/>
				<path fill="#030104" d="M52.852,8.195c0.413,3.092,2.768,5.124,5.947,5.124c1.826,0,3.974-0.648,5.151-1.59
					c0.206-0.148,0.325-0.207,0.471-0.207c0.296,0,0.56,0.265,0.56,0.59c0,1.03-3.532,2.412-6.211,2.412
					c-3.974,0-7.125-3.031-7.125-6.859c0-3.562,2.943-6.3,6.711-6.3c2.827,0,5.183,1.501,6.244,3.945
					c0.412,0.97,0.499,1.53,0.499,2.883H52.852z M58.357,2.572c-2.855,0-4.974,1.708-5.505,4.416h11.011
					C63.392,4.31,61.213,2.572,58.357,2.572z"/>
				<path fill="#030104" d="M78.528,1.778c0.532,0,0.796,0.206,0.796,0.588c0,0.413-0.264,0.618-0.796,0.618h-5.171v7.86
					c0,1.503,1.267,2.475,3.298,2.475c1.886,0,2.433-0.501,3.58-1.178c0.238-0.148,0.325-0.177,0.472-0.177
					c0.294,0,0.558,0.294,0.558,0.589c0,0.854-1.848,1.972-4.552,1.972c-2.766,0-4.563-1.412-4.563-3.62V2.984h-2.179
					c-0.56,0-0.825-0.205-0.825-0.618c0-0.382,0.265-0.588,0.825-0.588H78.528z"/>
				<path fill="#030104" d="M105.159,3.591v9.257h2.754c0.529,0,0.796,0.206,0.796,0.589c0,0.412-0.266,0.618-0.796,0.618h-6.714
					c-0.532,0-0.824-0.206-0.824-0.618c0-0.383,0.265-0.589,0.824-0.589h2.753V3.591H105.159z"/>
				<path fill="#030104" d="M87.585,2.279c0-0.531,0.206-0.796,0.619-0.796s0.6,0.236,0.6,0.796l-0.004,2.502
					c2.737-2.473,4.182-3.297,5.683-3.297c0.852,0,1.502,0.266,2.267,0.913c0.5,0.412,0.676,0.648,0.676,0.912
					c0,0.354-0.264,0.619-0.617,0.619c-0.206,0-0.266-0.03-0.471-0.236c-0.706-0.677-1.294-1.001-1.942-1.001
					c-1.326,0-2.356,0.678-5.595,3.651v6.506h3.314c0.5,0,0.793,0.235,0.793,0.618c0,0.354-0.293,0.589-0.793,0.589H86.07
					c-0.499,0-0.793-0.235-0.793-0.618c0-0.354,0.294-0.589,0.793-0.589h1.521L87.585,2.279z"/>
				<path fill="#030104" d="M32.498,2.497v0.812c1-1.413,1.854-1.942,3.092-1.942c1.265,0,2.86,0.677,3.508,2.09
					c1.149-1.472,2.772-2.09,3.979-2.09c1.708,0,3.092,1.442,3.092,3.179v9.508h-1.177V4.663c0-1.119-0.914-2.091-1.944-2.091
					c-1.06,0-2.595,0.707-3.715,2.414v9.068h-1.176V4.752c0-1.149-1.566-2.179-2.566-2.179c-1.031,0-1.973,0.736-3.092,2.414v9.061
					h-1.177V2.984V2.279c0-0.531,0.206-0.796,0.617-0.796c0.413,0,0.558,0.236,0.558,0.796L32.498,2.497z"/>
				<path fill="#030104" d="M124.276,14.058V9.04V4.986c0-2.09-2.003-3.62-4.74-3.62c-1.089,0-3.002,0.383-4.622,0.941
					c-0.324,0.117-0.503,0.324-0.503,0.618c0,0.325,0.267,0.59,0.562,0.59c0,0,0.175-0.03,0.294-0.059
					c2.296-0.706,3.12-0.884,4.18-0.884c2.149,0,3.621,0.972,3.621,2.414v2.09c-1.737-0.47-2.648-0.618-4.002-0.618
					c-3.68,0-6.215,1.736-6.215,4.299c0,2.236,1.857,3.767,4.594,3.767c2.063,0,3.828-0.765,5.623-2.443l0.002,1.976H124.276z
					 M123.068,10.758c-1.971,1.854-3.56,2.561-5.652,2.561c-2.03,0-3.356-1.002-3.356-2.532c0-1.855,2.121-3.12,5.24-3.12
					c1.295,0,2.709,0.176,3.768,0.441V10.758z"/>
			</g>
		</g>
	</g>
</g>
<g>
</g>
<g>
</g>
<g>
</g>
<g>
</g>
<g>
</g>
<g>
</g>
</svg>
