<?xml version="1.0" encoding="utf-8"?>
<!-- Generator: Adobe Illustrator 17.0.0, SVG Export Plug-In . SVG Version: 6.00 Build 0)  -->
<!DOCTYPE svg PUBLIC "-//W3C//DTD SVG 1.1//EN" "http://www.w3.org/Graphics/SVG/1.1/DTD/svg11.dtd">
<svg version="1.1" xmlns="http://www.w3.org/2000/svg" xmlns:xlink="http://www.w3.org/1999/xlink" x="0px" y="0px"
	 width="14.167px" height="20.5px" viewBox="0 0 14.167 20.5" enable-background="new 0 0 14.167 20.5" xml:space="preserve">
<g id="Capa_1" display="none">
	<g display="inline">
		<g>
			<path fill="#FFFFFF" d="M11.018,19.581c0.263-0.263,0.263-0.689,0-0.951l-8.38-8.364l8.38-8.38c0.263-0.263,0.263-0.69,0-0.951
				c-0.262-0.263-0.689-0.263-0.951,0L1.227,9.773C1.096,9.904,1.03,10.069,1.03,10.249c0,0.164,0.066,0.344,0.197,0.476l8.839,8.84
				C10.329,19.843,10.756,19.843,11.018,19.581L11.018,19.581z M11.018,19.581"/>
		</g>
	</g>
</g>
<g id="Capa_2">
	<g>
		<g>
			<path fill="#FFFFFF" d="M2.188,0.925c-0.263,0.263-0.263,0.689,0,0.951l8.38,8.364l-8.38,8.38c-0.263,0.263-0.263,0.69,0,0.951
				c0.262,0.263,0.689,0.263,0.951,0l8.839-8.839c0.131-0.131,0.197-0.296,0.197-0.476c0-0.164-0.066-0.344-0.197-0.476l-8.839-8.84
				C2.877,0.663,2.45,0.663,2.188,0.925L2.188,0.925z M2.188,0.925"/>
		</g>
	</g>
	<g>
	</g>
	<g>
	</g>
	<g>
	</g>
	<g>
	</g>
	<g>
	</g>
	<g>
	</g>
</g>
</svg>
