<?xml version="1.0" encoding="utf-8"?>
<!-- Generator: Adobe Illustrator 17.0.0, SVG Export Plug-In . SVG Version: 6.00 Build 0)  -->
<!DOCTYPE svg PUBLIC "-//W3C//DTD SVG 1.1//EN" "http://www.w3.org/Graphics/SVG/1.1/DTD/svg11.dtd">
<svg version="1.1" xmlns="http://www.w3.org/2000/svg" xmlns:xlink="http://www.w3.org/1999/xlink" x="0px" y="0px" width="20px"
	 height="20px" viewBox="0 0 20 20" enable-background="new 0 0 20 20" xml:space="preserve">
<g id="Capa_1" display="none">
	<g display="inline">
		<g>
			<path fill="#818080" d="M10.2,10.756h0.129c1.181-0.02,2.137-0.435,2.843-1.23c1.552-1.75,1.294-4.75,1.266-5.036
				c-0.101-2.149-1.117-3.177-1.955-3.657c-0.625-0.359-1.355-0.552-2.169-0.569h-0.069c-0.447,0-1.326,0.073-2.169,0.552
				c-0.847,0.48-1.879,1.508-1.98,3.673C6.068,4.777,5.809,7.776,7.362,9.526C8.063,10.321,9.019,10.736,10.2,10.756L10.2,10.756z
				 M7.172,4.591c0-0.012,0.004-0.024,0.004-0.032c0.133-2.891,2.185-3.201,3.064-3.201h0.048c1.089,0.024,2.939,0.468,3.064,3.201
				c0,0.012,0,0.024,0.004,0.032c0.004,0.028,0.286,2.77-0.996,4.213c-0.508,0.573-1.185,0.855-2.076,0.863h-0.04
				c-0.887-0.008-1.568-0.29-2.072-0.863C6.894,7.369,7.168,4.615,7.172,4.591L7.172,4.591z M7.172,4.591"/>
			<path fill="#818080" d="M18.55,15.731v-0.012c0-0.032-0.004-0.065-0.004-0.101c-0.024-0.798-0.077-2.665-1.826-3.262
				c-0.012-0.004-0.028-0.008-0.04-0.012c-1.818-0.464-3.33-1.512-3.346-1.524c-0.246-0.173-0.585-0.113-0.758,0.133
				c-0.173,0.246-0.113,0.585,0.133,0.758c0.069,0.048,1.673,1.165,3.681,1.681c0.939,0.335,1.044,1.339,1.072,2.258
				c0,0.036,0,0.069,0.004,0.101c0.004,0.363-0.02,0.923-0.085,1.246c-0.653,0.371-3.213,1.653-7.108,1.653
				c-3.879,0-6.455-1.286-7.112-1.657c-0.065-0.323-0.093-0.883-0.085-1.246c0-0.032,0.004-0.064,0.004-0.101
				c0.028-0.919,0.133-1.923,1.073-2.258c2.008-0.516,3.613-1.637,3.681-1.681c0.246-0.173,0.307-0.512,0.133-0.758
				c-0.173-0.246-0.512-0.306-0.758-0.133c-0.016,0.012-1.52,1.06-3.347,1.524c-0.016,0.004-0.028,0.008-0.04,0.012
				c-1.75,0.601-1.802,2.468-1.826,3.262c0,0.036,0,0.069-0.004,0.101v0.012c-0.004,0.21-0.008,1.286,0.206,1.826
				c0.04,0.105,0.113,0.194,0.21,0.254c0.121,0.081,3.02,1.927,7.87,1.927s7.749-1.851,7.87-1.927
				c0.093-0.06,0.169-0.149,0.21-0.254C18.558,17.017,18.554,15.941,18.55,15.731L18.55,15.731z M18.55,15.731"/>
		</g>
	</g>
</g>
<g id="Capa_5" display="none">
	<g display="inline">
		<g>
			<path fill="#818080" d="M5.782,13.076h10.642c1.207,0,2.191-0.985,2.191-2.191V6.36c0-0.008,0-0.016-0.004-0.024
				c0-0.008-0.004-0.02-0.004-0.028c0-0.008-0.004-0.016-0.004-0.024c-0.004-0.008-0.004-0.016-0.008-0.028
				c-0.004-0.008-0.004-0.016-0.008-0.024c-0.004-0.008-0.004-0.016-0.008-0.024c-0.004-0.008-0.008-0.016-0.012-0.028
				c-0.004-0.008-0.008-0.016-0.012-0.02l-0.012-0.024c-0.004-0.008-0.008-0.012-0.012-0.02c-0.004-0.008-0.012-0.016-0.016-0.024
				c-0.004-0.008-0.008-0.012-0.016-0.02c-0.004-0.008-0.012-0.012-0.016-0.02c-0.004-0.008-0.012-0.012-0.016-0.02
				c-0.004-0.008-0.012-0.012-0.016-0.016l-0.02-0.02c-0.008-0.004-0.012-0.012-0.02-0.016c-0.008-0.004-0.016-0.012-0.024-0.016
				c-0.008-0.004-0.012-0.008-0.02-0.012c-0.008-0.004-0.016-0.008-0.024-0.016l-0.048-0.024l-0.024-0.012
				C18.266,5.9,18.258,5.9,18.25,5.895c-0.008-0.004-0.02-0.008-0.028-0.008c-0.008,0-0.016-0.004-0.02-0.004
				C18.19,5.88,18.183,5.88,18.17,5.88c-0.004,0-0.008-0.004-0.016-0.004L4.666,4.014V2.132c0-0.02,0-0.04-0.004-0.056
				c0-0.004,0-0.008-0.004-0.016c0-0.012-0.004-0.024-0.004-0.036c-0.004-0.012-0.004-0.02-0.008-0.032
				c0-0.008-0.004-0.012-0.004-0.02L4.631,1.938c0-0.004-0.004-0.012-0.004-0.016C4.623,1.91,4.619,1.902,4.611,1.89
				C4.607,1.886,4.607,1.878,4.603,1.874C4.599,1.867,4.595,1.859,4.587,1.851c-0.004-0.008-0.008-0.012-0.012-0.02
				c-0.004-0.008-0.008-0.012-0.012-0.02C4.559,1.803,4.551,1.795,4.547,1.787L4.512,1.751L4.5,1.74
				C4.492,1.732,4.484,1.724,4.472,1.716C4.468,1.712,4.46,1.708,4.456,1.704C4.448,1.696,4.44,1.692,4.432,1.684
				C4.42,1.676,4.408,1.668,4.4,1.664C4.396,1.66,4.392,1.66,4.389,1.656C4.373,1.648,4.353,1.64,4.337,1.632L1.411,0.402
				C1.137,0.287,0.824,0.414,0.709,0.687C0.594,0.962,0.721,1.275,0.994,1.39l2.596,1.096v11.742c0,1.111,0.834,2.032,1.909,2.171
				c-0.194,0.326-0.31,0.707-0.31,1.112c0,1.195,0.972,2.163,2.163,2.163c1.191,0,2.163-0.972,2.163-2.163
				c0-0.397-0.107-0.774-0.298-1.092h4.819c-0.191,0.322-0.298,0.695-0.298,1.092c0,1.195,0.972,2.163,2.163,2.163
				s2.163-0.972,2.163-2.163c0-1.191-0.973-2.163-2.163-2.163H5.782c-0.619,0-1.119-0.504-1.119-1.119v-1.453
				C4.988,12.965,5.373,13.076,5.782,13.076L5.782,13.076z M8.449,17.506c0,0.603-0.492,1.092-1.092,1.092
				c-0.599,0-1.092-0.492-1.092-1.092c0-0.599,0.492-1.092,1.092-1.092C7.957,16.415,8.449,16.903,8.449,17.506L8.449,17.506z
				 M17,17.506c0,0.603-0.492,1.092-1.092,1.092c-0.599,0-1.092-0.492-1.092-1.092c0-0.599,0.492-1.092,1.092-1.092
				C16.507,16.415,17,16.903,17,17.506L17,17.506z M16.424,12.005H5.782c-0.619,0-1.119-0.504-1.119-1.119V5.094l12.881,1.774v4.013
				C17.543,11.504,17.039,12.005,16.424,12.005L16.424,12.005z M16.424,12.005"/>
		</g>
	</g>
</g>
<g id="Capa_2" display="none">
	<g display="inline">
		<g>
			<path fill="#818080" d="M19.215,18.283l-4.559-4.559c1.223-1.406,1.963-3.24,1.963-5.245c0-4.413-3.59-7.999-7.999-7.999
				c-4.413,0-7.999,3.59-7.999,7.999s3.59,7.999,7.999,7.999c2.005,0,3.839-0.74,5.245-1.963l4.559,4.559
				c0.108,0.108,0.254,0.166,0.395,0.166c0.141,0,0.287-0.054,0.395-0.166C19.432,18.857,19.432,18.499,19.215,18.283L19.215,18.283
				z M1.741,8.479c0-3.794,3.086-6.876,6.876-6.876c3.793,0,6.876,3.086,6.876,6.876s-3.082,6.88-6.876,6.88
				C4.828,15.359,1.741,12.272,1.741,8.479L1.741,8.479z M1.741,8.479"/>
		</g>
	</g>
</g>
<g id="Capa_3">
	<g>
		<g>
			<path fill="#818080" d="M17.491,3.972c-0.927-0.928-2.155-1.435-3.466-1.435c-1.311,0-2.542,0.511-3.47,1.438L10.07,4.46
				L9.578,3.968C8.651,3.041,7.415,2.526,6.105,2.526c-1.307,0-2.539,0.511-3.462,1.435C1.715,4.889,1.204,6.12,1.208,7.431
				c0,1.311,0.515,2.539,1.442,3.466l7.053,7.053c0.098,0.098,0.229,0.15,0.357,0.15c0.128,0,0.259-0.049,0.357-0.147l7.068-7.041
				c0.928-0.928,1.438-2.159,1.438-3.47C18.925,6.132,18.419,4.9,17.491,3.972L17.491,3.972z M16.77,10.195l-6.711,6.685
				l-6.696-6.696C2.627,9.448,2.222,8.471,2.222,7.431c0-1.04,0.402-2.017,1.138-2.749C4.092,3.95,5.068,3.544,6.105,3.544
				c1.04,0,2.02,0.406,2.756,1.142L9.71,5.534c0.199,0.199,0.518,0.199,0.717,0l0.841-0.841c0.736-0.736,1.716-1.142,2.753-1.142
				c1.036,0,2.013,0.406,2.749,1.138c0.736,0.736,1.138,1.712,1.138,2.753C17.911,8.482,17.506,9.459,16.77,10.195L16.77,10.195z
				 M16.77,10.195"/>
		</g>
	</g>
</g>
<g id="Capa_4" display="none">
</g>
</svg>
